<?xml version="1.0" encoding="UTF-8" standalone="no"?><!DOCTYPE svg PUBLIC "-//W3C//DTD SVG 1.1//EN" "http://www.w3.org/Graphics/SVG/1.1/DTD/svg11.dtd"><svg width="100%" height="100%" viewBox="0 0 4710 1608" version="1.1" xmlns="http://www.w3.org/2000/svg" xmlns:xlink="http://www.w3.org/1999/xlink" xml:space="preserve" xmlns:serif="http://www.serif.com/" style="fill-rule:evenodd;clip-rule:evenodd;stroke-linejoin:round;stroke-miterlimit:2;"><rect id="logo" x="0" y="-0" width="4709.33" height="1607.03" style="fill:none;"/><path d="M823.807,671.323l13.769,586.377l542.895,0.457l1.369,-586.53l-175.391,-0.41l-0.961,411.4c0,0 -196.586,-0.165 -196.586,-0.165c-0,0 -9.751,-415.247 -9.751,-415.247l-175.344,4.118Z"/><path d="M898.689,649.162l1303.19,-13.327l-1.793,-175.383l-1303.19,13.327l1.793,175.383Z"/><path d="M1413.78,431.824l-7.552,824.599l175.385,1.606l7.552,-824.598l-175.385,-1.607Z"/><path d="M2181.44,655.107l-561.777,5.357l8.17,596.909l585.18,-2.918l-18.817,-281.332c-0,-0 -12.756,-318.016 -12.756,-318.016Zm-383.991,179.062l215.557,-2.056c0,0 6.032,150.379 6.032,150.379c0.078,1.168 6.522,97.503 6.522,97.503c-0,0 -224.73,1.121 -224.73,1.121l-3.381,-246.947Z"/><path d="M2706.19,655.188l-498.573,-4.573l55.918,607.766l454.918,0.884l0.341,-175.392l-295.234,-0.574c-0,0 -23.51,-255.519 -23.51,-255.519c0,-0 304.531,2.793 304.531,2.793l1.609,-175.385Z" style="fill:none;stroke:#000;stroke-width:21.69px;"/><path d="M3165.25,864.94l-429.096,-9.312l23.742,399.996l580.746,3.291l0,-617.703l-568.401,-1.779l-0.549,175.391l393.558,1.232l-0,48.884Zm-0,175.434l-242.742,-5.268c-0,0 2.734,46.06 2.734,46.06c-0,-0 240.008,1.36 240.008,1.36l-0,-42.152Z" style="fill:none;stroke:#000;stroke-width:21.69px;"/><path d="M3546.53,682.339l-0.972,-45.342l-175.352,3.757l13.238,617.773l175.352,-3.758l-8.497,-396.521l253.17,-25.668l-17.692,-174.498l-239.247,24.257Z" style="fill:none;stroke:#000;stroke-width:21.69px;"/><path d="M3988.08,1036.7l439.263,-2.496l-17.345,-385.004l-573.462,-1.952l-6.419,81.048c-13.347,168.506 -17.974,319.399 -22.574,440.447l-3.476,91.48l649.872,-3.229l-0.872,-175.39l-466.853,2.32l1.866,-47.224Zm8.63,-175.444l247.208,-1.405c0,0 -1.614,-35.829 -1.614,-35.829c-0,0 -243.206,-0.828 -243.206,-0.828c-0.843,12.816 -1.64,25.507 -2.388,38.062Z"/><path d="M306.226,915.732l306.959,-6.888c0,0 11.658,351.839 11.658,351.839l175.343,-3.423l-5.065,-857.173l-650.157,4.504l-23.533,847.18l175.325,4.87l9.47,-340.909Zm315.468,-182.515l-0.925,-156.526c-0,0 -305.184,2.115 -305.184,2.115l-4.483,161.38l310.592,-6.969Z"/></svg>