<?xml version="1.0" encoding="UTF-8" standalone="no"?><!DOCTYPE svg PUBLIC "-//W3C//DTD SVG 1.1//EN" "http://www.w3.org/Graphics/SVG/1.1/DTD/svg11.dtd"><svg width="100%" height="100%" viewBox="0 0 1714 1400" version="1.1" xmlns="http://www.w3.org/2000/svg" xmlns:xlink="http://www.w3.org/1999/xlink" xml:space="preserve" xmlns:serif="http://www.serif.com/" style="fill-rule:evenodd;clip-rule:evenodd;stroke-linejoin:round;stroke-miterlimit:2;"><rect id="logo-short" x="0" y="-0" width="1713.45" height="1399.5" style="fill:none;"/><path d="M351.379,860.74l347.435,-7.958c0,0 13.196,406.506 13.196,406.506l198.463,-3.954l-5.733,-990.358l-735.887,5.205l-26.635,978.811l198.443,5.627l10.718,-393.879Zm357.066,-210.873l-1.047,-180.846c0,-0 -345.426,2.443 -345.426,2.443l-5.074,186.455l351.547,-8.052Z"/><path d="M1555.35,571.723l-564.315,-5.285l63.292,702.199l514.903,1.021l0.386,-202.643l-334.164,-0.663c0,-0 -26.609,-295.222 -26.609,-295.222c-0,0 344.686,3.228 344.686,3.228l1.821,-202.635Z" style="fill:none;stroke:#000;stroke-width:21.69px;"/></svg>